<svg xmlns="http://www.w3.org/2000/svg" viewBox="0 0 128 128">
  <defs>
    <radialGradient id="ringOuter" cx="50%" cy="50%" r="50%">
      <stop offset="0%" stop-color="#3b5c62"/>
      <stop offset="100%" stop-color="#2f4f55"/>
    </radialGradient>
    <radialGradient id="ringInner" cx="50%" cy="50%" r="50%">
      <stop offset="0%" stop-color="#4c7780"/>
      <stop offset="100%" stop-color="#3a646c"/>
    </radialGradient>
    <filter id="shadow" x="-20%" y="-20%" width="140%" height="140%">
      <feDropShadow dx="0" dy="2" stdDeviation="3" flood-color="#000" flood-opacity="0.25"/>
    </filter>
  </defs>
  <circle cx="64" cy="64" r="60" fill="url(#ringOuter)"/>
  <circle cx="64" cy="64" r="42" fill="url(#ringInner)"/>
  <!-- Mortarboard cap -->
  <g filter="url(#shadow)">
    <path d="M40 52l24-10 24 10-24 10-24-10z" fill="#1f2937"/>
    <rect x="62" y="34" width="4" height="10" fill="#1f2937"/>
    <path d="M66 44l6 4-2 10" stroke="#eab308" stroke-width="2" fill="none"/>
  </g>
  <!-- Face and torso -->
  <circle cx="64" cy="70" r="16" fill="#f4d1a1"/>
  <path d="M48 100c0-10 7-18 16-18s16 8 16 18" fill="#1f2937"/>
  <path d="M64 72l6 12-6 4-6-4 6-12z" fill="#eab308"/>
</svg>
